Coordinates
version=1
nRows=18
nColumns=22
inDegrees=yes

Units are S.I. units (second, meters, Newtons, ...)
If the header above contains a line with 'inDegrees', this indicates whether rotational values are in degrees (yes) or radians (no).

endheader
time	pelvis_tilt	pelvis_list	pelvis_rotation	pelvis_tx	pelvis_ty	pelvis_tz	hip_flexion_r	hip_adduction_r	hip_rotation_r	knee_angle_r	ankle_angle_r	subtalar_angle_r	hip_flexion_l	hip_adduction_l	hip_rotation_l	knee_angle_l	ankle_angle_l	subtalar_angle_l	lumbar_extension	lumbar_bending	lumbar_rotation
      0.01000000	     -1.55991399	     -1.82469689	     -6.93320726	     -1.39222968	      0.93402710	     -0.02668081	     -1.88295566	      3.09497640	     -0.06079621	     -4.27968667	      4.61335041	     -1.41347574	     -0.32976803	     -2.29488011	    -12.82647987	     -9.65368989	      9.01531158	     -1.48703867	     -3.47019753	     -0.65415620	      1.34364233
      0.02000000	     -1.56154699	     -1.83166161	     -6.96114110	     -1.39206647	      0.93403131	     -0.02664826	     -1.86820735	      3.09984749	     -0.03864622	     -4.32394074	      4.62284493	     -1.41851763	     -0.33503876	     -2.30183016	    -12.83926264	     -9.67264994	      9.02356454	     -1.49163974	     -3.48574044	     -0.65354049	      1.32843014
      0.03000000	     -1.56291208	     -1.84013741	     -7.03337752	     -1.39188929	      0.93401912	     -0.02653784	     -1.81870596	      3.10750648	     -0.00803070	     -4.43651178	      4.68800061	     -1.42356191	     -0.33829553	     -2.31626069	    -12.92836402	     -9.71377780	      9.05952982	     -1.50479995	     -3.50254723	     -0.65757778	      1.38921498
      0.04000000	     -1.55091040	     -1.84671361	     -7.10602336	     -1.39169728	      0.93401595	     -0.02644060	     -1.77422997	      3.10974823	      0.04525849	     -4.56825752	      4.74748522	     -1.42349581	     -0.34844143	     -2.32720482	    -13.00117371	     -9.77097861	      9.09043539	     -1.51648524	     -3.53506979	     -0.66185200	      1.43387844
      0.05000000	     -1.51580320	     -1.86109939	     -7.18491176	     -1.39148615	      0.93403534	     -0.02633423	     -1.74228001	      3.11742081	      0.10274560	     -4.72766788	      4.81573080	     -1.42086195	     -0.37998790	     -2.34500083	    -13.07718159	     -9.84165747	      9.12948892	     -1.52784625	     -3.59401079	     -0.65999464	      1.48598432
      0.06000000	     -1.45622985	     -1.88211475	     -7.27650819	     -1.39125910	      0.93407743	     -0.02621338	     -1.72706244	      3.12876911	      0.17212351	     -4.90708688	      4.89393040	     -1.41742751	     -0.43619618	     -2.36759152	    -13.16345298	     -9.92443587	      9.17742488	     -1.53959299	     -3.68073252	     -0.65237281	      1.55055094
      0.07000000	     -1.37158862	     -1.91058979	     -7.37882770	     -1.39101167	      0.93414384	     -0.02606391	     -1.73203222	      3.14592197	      0.25047856	     -5.10452979	      4.97791417	     -1.41433061	     -0.51976621	     -2.39665937	    -13.25939288	    -10.01385872	      9.23266519	     -1.55131981	     -3.79353712	     -0.64212594	      1.63147103
      0.08000000	     -1.26320676	     -1.94351522	     -7.49410288	     -1.39074513	      0.93423559	     -0.02590897	     -1.75860641	      3.16372278	      0.34030935	     -5.31087015	      5.06441221	     -1.41282963	     -0.63045056	     -2.42558582	    -13.36603291	    -10.10766733	      9.29429174	     -1.56294201	     -3.93040110	     -0.62809022	      1.72721668
      0.09000000	     -1.10926418	     -1.97127102	     -7.62904234	     -1.39043860	      0.93438359	     -0.02572954	     -1.84938217	      3.16889932	      0.49479493	     -5.49057863	      5.14002493	     -1.41883134	     -0.79892235	     -2.43994392	    -13.50470429	    -10.19171138	      9.35389829	     -1.57930263	     -4.11180145	     -0.62642839	      1.83640335
      0.10000000	     -0.96239095	     -2.01092554	     -7.75092076	     -1.39014741	      0.93451536	     -0.02557128	     -1.91539825	      3.18926917	      0.58647800	     -5.70468206	      5.22339998	     -1.42603290	     -0.94845145	     -2.46776302	    -13.60766091	    -10.29583881	      9.42082987	     -1.59219969	     -4.28684579	     -0.61154634	      1.95512248
      0.11000000	     -0.81429792	     -2.05050233	     -7.87373947	     -1.38986112	      0.93464492	     -0.02542133	     -1.98009238	      3.20969758	      0.68288753	     -5.92311268	      5.30526774	     -1.43800673	     -1.09328097	     -2.49402270	    -13.71062460	    -10.41036742	      9.49363609	     -1.60667055	     -4.45949684	     -0.59688328	      2.07867417
      0.12000000	     -0.68950653	     -2.09499530	     -7.98060603	     -1.38959683	      0.93474152	     -0.02529293	     -2.00522798	      3.24088453	      0.72818427	     -6.16916770	      5.38072141	     -1.44765515	     -1.20421314	     -2.52860496	    -13.77678186	    -10.53539651	      9.56940188	     -1.61799079	     -4.60369557	     -0.57543800	      2.19997768
      0.13000000	     -0.55382168	     -2.12907881	     -8.08438785	     -1.38934004	      0.93484682	     -0.02518994	     -2.05123880	      3.25819030	      0.81539912	     -6.39454805	      5.47207473	     -1.46446231	     -1.31301110	     -2.55053999	    -13.85774646	    -10.68419832	      9.65822529	     -1.63195454	     -4.75587151	     -0.56555412	      2.31887700
      0.14000000	     -0.42327334	     -2.15880680	     -8.17839791	     -1.38908875	      0.93494858	     -0.02512963	     -2.09383342	      3.27042080	      0.90386043	     -6.61374509	      5.55644808	     -1.48942656	     -1.41378506	     -2.56500920	    -13.92288568	    -10.83154194	      9.73882168	     -1.64882902	     -4.89702361	     -0.55410379	      2.43549938
      0.15000000	     -0.30531241	     -2.18178764	     -8.25474148	     -1.38885031	      0.93503448	     -0.02510402	     -2.12011153	      3.27759444	      0.98303064	     -6.83592136	      5.64011530	     -1.51584538	     -1.49402502	     -2.57429929	    -13.96341802	    -10.98388208	      9.81147447	     -1.66497909	     -5.01821674	     -0.54909997	      2.53917630
      0.16000000	     -0.19799041	     -2.19743561	     -8.31907722	     -1.38861630	      0.93510763	     -0.02511303	     -2.13187554	      3.27774156	      1.05794391	     -7.06221637	      5.73052282	     -1.54242670	     -1.55814285	     -2.57722715	    -13.99392310	    -11.13880813	      9.87828422	     -1.68074098	     -5.12069354	     -0.54805396	      2.63498941
      0.17000000	     -0.10136959	     -2.20506772	     -8.37495811	     -1.38838603	      0.93516664	     -0.02517042	     -2.12985953	      3.26819420	      1.13055279	     -7.28981781	      5.82536634	     -1.56866563	     -1.60704798	     -2.57155396	    -14.01776714	    -11.29479278	      9.93600258	     -1.69575186	     -5.20532417	     -0.54603529	      2.72400099
      0.18000000	     -0.01488864	     -2.20837674	     -8.42395602	     -1.38815200	      0.93521199	     -0.02523731	     -2.11495273	      3.25536059	      1.19479495	     -7.52118633	      5.92563487	     -1.59183845	     -1.64356188	     -2.56479565	    -14.03844930	    -11.45134160	      9.98711187	     -1.70791416	     -5.27140971	     -0.54812233	      2.80770996
